<?xml version="1.0" encoding="UTF-8"?>
<svg id="Layer_2" data-name="Layer 2" xmlns="http://www.w3.org/2000/svg" viewBox="0 0 288.16 77.59">
  <g id="Layer_1-2" data-name="Layer 1">
    <g>
      <path d="m139.2,41.61h3.25l-1.26,9.64h5.08l-.34,2.91h-5.13l-3.1,22.81h-3.34l3.15-22.81h-4.46l.39-2.91h4.41l1.36-9.64Z" fill="#312783"/>
      <path d="m172.09,62.87c0,8.09-5.96,14.72-14.77,14.72-7.12,0-11.87-5.09-11.87-12.01,0-8.43,6.49-15.01,14.77-15.01,6.68,0,11.87,4.99,11.87,12.3Zm-23.34,2.52c0,5.33,3.58,9.15,9.01,9.15,6.63,0,11.04-5.33,11.04-11.72,0-5.52-3.73-9.2-8.67-9.2-6.34,0-11.38,4.94-11.38,11.77Z" fill="#312783"/>
      <path d="m200.91,62.87c0,8.09-5.96,14.72-14.77,14.72-7.12,0-11.87-5.09-11.87-12.01,0-8.43,6.49-15.01,14.77-15.01,6.68,0,11.87,4.99,11.87,12.3Zm-23.34,2.52c0,5.33,3.58,9.15,9.01,9.15,6.63,0,11.04-5.33,11.04-11.72,0-5.52-3.73-9.2-8.67-9.2-6.34,0-11.38,4.94-11.38,11.77Z" fill="#312783"/>
      <path d="m207.11,41.32h3.25l-4.94,35.65h-3.29l4.99-35.65Z" fill="#312783"/>
      <path d="m214.52,41.32h3.25l-2.76,19.42,12.4-9.49h5.13l-14.92,11.48,13.17,14.24h-4.41l-11.87-12.79-1.74,12.79h-3.29l5.04-35.65Z" fill="#312783"/>
      <path d="m233.84,51.25h3.15l-3.44,25.72h-3.25l3.54-25.72Zm5.28-7.94c0,1.5-1.21,2.66-2.66,2.66s-2.66-1.21-2.66-2.66,1.16-2.66,2.66-2.66,2.66,1.21,2.66,2.66Z" fill="#312783"/>
      <path d="m245.32,41.61h3.25l-1.26,9.64h5.09l-.34,2.91h-5.13l-3.1,22.81h-3.34l3.15-22.81h-4.46l.39-2.91h4.41l1.36-9.64Z" fill="#312783"/>
    </g>
    <g>
      <path d="m20.2,33.61c-2.28,2.23-4.7,3.39-7.94,3.39-6.54,0-12.25-5.62-12.25-13.51s5.42-13.56,12.11-13.56c3.1,0,5.76,1.16,8.09,3.49V.68h6.44v35.65h-6.44v-2.71Zm-13.71-10.17c0,4.41,2.91,7.65,6.93,7.65s7.07-3,7.07-7.7-3-7.55-7.07-7.55-6.93,3.39-6.93,7.6Z" fill="#312783"/>
      <path d="m49.25,33.61c-2.28,2.23-4.7,3.39-7.94,3.39-6.54,0-12.25-5.62-12.25-13.51s5.42-13.56,12.11-13.56c3.1,0,5.76,1.16,8.09,3.49v-2.81h6.44v25.72h-6.44v-2.71Zm-13.71-10.17c0,4.41,2.91,7.65,6.93,7.65s7.07-3,7.07-7.7-3-7.55-7.07-7.55-6.93,3.39-6.93,7.6Z" fill="#312783"/>
      <path d="m56.47,10.61h6.59l6.68,16.13,7.41-16.13h6.63l-16.18,35.11h-6.64l5.28-11.33-9.78-23.78Z" fill="#312783"/>
      <path d="m89.6,25.18c-4.12-2.08-6.2-4.6-6.2-7.85,0-4.02,3.39-7.41,8.33-7.41,3.34,0,6.39,1.5,8.47,4.26l-3.97,4.02c-1.45-1.45-2.91-2.37-4.46-2.37-1.31,0-2.32.53-2.32,1.55s.92,1.4,2.32,2.13l2.37,1.21c4.26,2.18,6.54,4.41,6.54,8.23,0,4.6-3.63,8.04-9.25,8.04-3.73,0-6.78-1.5-9.01-4.41l3.97-4.36c1.5,1.74,3.68,3,5.38,3,1.6,0,2.86-.92,2.86-2.08s-1.07-1.94-2.86-2.86l-2.18-1.11Z" fill="#312783"/>
      <path d="m128.63,23.44c0,7.46-5.76,13.56-13.61,13.56s-13.37-5.96-13.37-13.51,6.3-13.56,13.32-13.56c7.51,0,13.66,5.91,13.66,13.51Zm-20.49,0c0,4.36,2.76,7.46,6.93,7.46s7.07-2.91,7.07-7.41-2.86-7.46-7.07-7.46-6.93,3.15-6.93,7.41Z" fill="#fcc248"/>
      <path d="m131.01,10.61h6.44v13.42c0,4.6,1.45,7.02,4.84,7.02s4.84-2.37,4.84-6.73v-13.71h6.44v11.87c0,4.75-.29,8.23-3,11.24-2.03,2.28-4.7,3.25-8.28,3.25-6.2,0-10.02-3.15-11.04-9.15-.34-2.08-.24-3.29-.24-5.42v-11.77Z" fill="#fcc248"/>
      <path d="m157.89,1.11h6.44v9.49h3.83v5.52h-3.83v20.2h-6.44v-20.2h-3.29v-5.52h3.29V1.11Z" fill="#fcc248"/>
      <path d="m194.21,32.64c0,4.99-.97,8.33-3.92,10.85-2.32,1.94-5.42,2.86-9.35,2.86-7.07,0-11.57-2.76-13.32-8.14h7.12c1.31,1.55,3.25,2.23,5.96,2.23,2.37,0,4.31-.63,5.47-1.69,1.55-1.45,1.6-3.2,1.6-5.62-2.13,2.08-4.46,3.2-7.8,3.2-6.93,0-12.35-5.52-12.35-13.22s5.47-13.17,12.01-13.17c3.2,0,5.71,1.21,8.14,3.49v-2.81h6.44v22.04Zm-20.1-9.49c0,4.26,3.05,7.27,7.07,7.27s6.93-2.86,6.93-7.22-2.76-7.36-7.02-7.36-6.97,3.34-6.97,7.31Z" fill="#b2bad3"/>
      <path d="m197.84,10.61h6.44v13.42c0,4.6,1.45,7.02,4.84,7.02s4.84-2.37,4.84-6.73v-13.71h6.44v11.87c0,4.75-.29,8.23-3,11.24-2.03,2.28-4.7,3.25-8.28,3.25-6.2,0-10.03-3.15-11.04-9.15-.34-2.08-.24-3.29-.24-5.42v-11.77Z" fill="#b2bad3"/>
      <path d="m230.63,4.26c0,2.28-1.84,4.12-4.12,4.12s-4.12-2.08-4.12-4.46c0-2.23,1.89-3.92,4.12-3.92s4.12,1.94,4.12,4.26Zm-7.31,6.34h6.44v25.72h-6.44V10.61Z" fill="#b2bad3"/>
      <path d="m251.7,33.61c-2.28,2.23-4.7,3.39-7.94,3.39-6.54,0-12.25-5.62-12.25-13.51s5.42-13.56,12.11-13.56c3.1,0,5.76,1.16,8.09,3.49V.68h6.44v35.65h-6.44v-2.71Zm-13.71-10.17c0,4.41,2.91,7.65,6.93,7.65s7.07-3,7.07-7.7-3-7.55-7.07-7.55-6.93,3.39-6.93,7.6Z" fill="#b2bad3"/>
      <path d="m285.84,31.33c-2.76,3.92-6.39,5.67-11.82,5.67-8.19,0-13.46-6-13.46-13.56,0-7.02,5.08-13.51,13.37-13.51s13.66,5.81,13.66,13.95c0,.58-.05.87-.05,1.45h-20.73c.63,3.83,3.54,5.96,7.22,5.96,2.76,0,4.6-.77,6.39-2.52l5.42,2.57Zm-4.75-11.09c-.87-3-3.63-4.84-7.07-4.84-3.2,0-5.67,1.6-6.93,4.84h14Z" fill="#b2bad3"/>
    </g>
    <g>
      <path d="m275.8,52.72c-.16-.33-.55-.47-.87-.32l-24.38,15.93c-.3.2-.54.48-.67.82l-3.12,7.22h0c-.05.13-.03.28.05.39.07.12.2.19.34.2l7.86.05h0c.35,0,.69-.09.98-.28l24.4-15.93c.28-.23.32-.64.09-.92l-4.68-7.17Z" fill="#b2bad3"/>
      <path d="m288.05,55l-4.68-7.18c-.1-.16-.26-.27-.45-.31-.18-.04-.38,0-.54.1l-4.81,3.14c-.18.12-.31.3-.36.51-.04.22,0,.44.12.62l4.59,6.98h0c.12.18.31.31.52.36.21.04.43,0,.62-.12l4.82-3.14h0c.3-.22.38-.64.18-.96h0Z" fill="#b2bad3"/>
    </g>
  </g>
</svg>