<?xml version="1.0" encoding="UTF-8" standalone="no"?>
<!-- Created with Inkscape (http://www.inkscape.org/) -->

<svg
   viewBox="0 0 34.774189 6.7892084"
   version="1.1"
   id="svg5"
   xmlns="http://www.w3.org/2000/svg"
   xmlns:svg="http://www.w3.org/2000/svg">
  <defs
     id="defs2">
    <style
       id="style824">
      .cls-1, .cls-2 {
        fill: #12264b;
      }

      .cls-2 {
        fill-rule: evenodd;
      }
    </style>
  </defs>
  <g
     id="layer1"
     transform="translate(-52.422363,-130.02821)">
    <g
       id="g969"
       transform="matrix(0.26458333,0,0,0.26458333,52.422363,130.02821)">
      <g
         id="g852">
        <path
           class="cls-1"
           d="M 3.56,10.55 C 3.05,10.55 2.57,10.44 2.13,10.23 1.69,10.02 1.31,9.73 1,9.37 0.69,9.01 0.43,8.61 0.26,8.14 0.09,7.67 0,7.2 0,6.71 0,6.22 0.09,5.71 0.26,5.24 0.43,4.77 0.67,4.37 0.97,4.01 1.27,3.66 1.63,3.38 2.05,3.17 2.46,2.96 2.92,2.86 3.41,2.86 3.73,2.86 4.04,2.91 4.32,3 4.61,3.09 4.87,3.22 5.12,3.38 5.37,3.54 5.59,3.72 5.79,3.93 5.99,4.14 6.16,4.36 6.3,4.6 V 0 h 0.71 v 9.41 c 0,0.24 0.1,0.36 0.3,0.36 v 0.64 c -0.06,0 -0.1,0.02 -0.14,0.02 -0.04,0 -0.08,0 -0.11,0 -0.19,0 -0.35,-0.07 -0.48,-0.22 C 6.45,10.06 6.38,9.91 6.38,9.75 V 8.92 C 6.08,9.41 5.67,9.81 5.16,10.1 4.65,10.39 4.12,10.54 3.57,10.54 Z M 3.69,9.91 C 3.95,9.91 4.22,9.86 4.52,9.75 4.82,9.64 5.09,9.5 5.34,9.32 5.59,9.13 5.81,8.92 5.99,8.69 6.17,8.45 6.28,8.2 6.3,7.92 V 5.48 C 6.2,5.21 6.05,4.96 5.85,4.72 5.66,4.48 5.43,4.27 5.19,4.09 4.95,3.91 4.68,3.77 4.39,3.67 4.1,3.57 3.83,3.51 3.56,3.51 3.13,3.51 2.74,3.6 2.39,3.79 2.04,3.98 1.74,4.22 1.49,4.52 1.24,4.82 1.05,5.16 0.92,5.55 0.79,5.93 0.72,6.33 0.72,6.74 c 0,0.41 0.08,0.83 0.23,1.21 0.15,0.38 0.36,0.72 0.63,1.01 0.27,0.29 0.58,0.53 0.94,0.7 0.36,0.17 0.74,0.26 1.16,0.26 z"
           id="path828" />
        <path
           class="cls-1"
           d="m 11.1,10.55 c -0.34,0 -0.66,-0.06 -0.96,-0.18 C 9.84,10.25 9.59,10.09 9.36,9.89 9.14,9.69 8.96,9.44 8.84,9.16 8.72,8.88 8.65,8.58 8.65,8.26 8.65,7.94 8.73,7.64 8.88,7.38 9.03,7.11 9.24,6.88 9.51,6.69 9.78,6.5 10.11,6.34 10.49,6.23 c 0.38,-0.11 0.8,-0.16 1.25,-0.16 0.4,0 0.8,0.04 1.2,0.11 0.4,0.07 0.77,0.17 1.09,0.29 V 5.74 c 0,-0.7 -0.2,-1.26 -0.6,-1.68 -0.4,-0.41 -0.94,-0.62 -1.62,-0.62 -0.36,0 -0.74,0.08 -1.15,0.23 -0.4,0.15 -0.81,0.37 -1.23,0.66 L 9.16,3.85 c 0.95,-0.65 1.85,-0.97 2.71,-0.97 0.86,0 1.6,0.26 2.11,0.78 0.51,0.52 0.77,1.23 0.77,2.15 v 3.62 c 0,0.24 0.1,0.36 0.31,0.36 v 0.64 c 0,0 -0.1,0.02 -0.15,0.02 -0.05,0 -0.1,0 -0.14,0 -0.19,0 -0.34,-0.06 -0.46,-0.19 C 14.2,10.13 14.13,9.98 14.11,9.8 V 9.19 c -0.34,0.45 -0.78,0.79 -1.31,1.03 -0.53,0.24 -1.11,0.36 -1.73,0.36 z m 0.14,-0.57 c 0.55,0 1.06,-0.1 1.52,-0.31 0.46,-0.21 0.81,-0.48 1.06,-0.83 0.15,-0.2 0.23,-0.39 0.23,-0.57 V 6.96 C 13.71,6.83 13.35,6.73 12.98,6.66 12.61,6.59 12.22,6.56 11.83,6.56 11.46,6.56 11.12,6.6 10.82,6.68 10.52,6.76 10.25,6.87 10.04,7.02 9.82,7.16 9.65,7.34 9.53,7.54 9.41,7.74 9.35,7.97 9.35,8.22 c 0,0.25 0.05,0.48 0.14,0.7 0.09,0.22 0.23,0.41 0.4,0.56 0.17,0.16 0.37,0.28 0.61,0.37 0.24,0.09 0.48,0.14 0.75,0.14 z"
           id="path830" />
        <path
           class="cls-1"
           d="m 17.25,12.92 c 0,0 0.12,0.01 0.21,0.01 0.09,0 0.18,0 0.26,-0.01 0.08,0 0.16,-0.03 0.24,-0.07 0.06,-0.03 0.11,-0.07 0.16,-0.12 0.05,-0.05 0.11,-0.16 0.2,-0.32 0.09,-0.16 0.19,-0.4 0.33,-0.71 0.13,-0.31 0.31,-0.74 0.54,-1.28 L 15.88,3.01 h 0.74 l 2.95,6.71 2.75,-6.71 h 0.7 l -4.06,9.75 c -0.1,0.27 -0.27,0.47 -0.51,0.62 -0.24,0.15 -0.55,0.22 -0.95,0.22 h -0.12 c 0,0 -0.09,0 -0.14,-0.01 v -0.66 z"
           id="path832" />
        <path
           class="cls-1"
           d="m 26.63,10.55 c -0.57,0 -1.12,-0.1 -1.64,-0.29 C 24.47,10.07 24.01,9.78 23.62,9.4 l 0.36,-0.48 c 0.4,0.36 0.81,0.63 1.24,0.8 0.43,0.17 0.9,0.26 1.41,0.26 0.65,0 1.17,-0.14 1.56,-0.41 C 28.58,9.3 28.78,8.92 28.78,8.44 28.78,8.21 28.73,8.02 28.63,7.86 28.53,7.7 28.38,7.57 28.18,7.46 27.98,7.35 27.73,7.25 27.44,7.17 27.15,7.08 26.8,6.99 26.41,6.9 25.99,6.81 25.63,6.71 25.32,6.61 25.01,6.52 24.76,6.4 24.56,6.27 24.36,6.14 24.21,5.98 24.11,5.79 24.01,5.6 23.96,5.36 23.96,5.06 c 0,-0.37 0.07,-0.69 0.21,-0.97 0.14,-0.28 0.34,-0.5 0.59,-0.68 0.25,-0.18 0.54,-0.32 0.87,-0.41 0.33,-0.09 0.68,-0.14 1.05,-0.14 0.58,0 1.09,0.1 1.54,0.29 0.45,0.19 0.79,0.44 1.04,0.75 l -0.4,0.38 C 28.61,3.99 28.29,3.78 27.9,3.64 27.51,3.5 27.09,3.43 26.64,3.43 c -0.28,0 -0.53,0.03 -0.78,0.09 -0.24,0.06 -0.45,0.15 -0.63,0.27 -0.18,0.12 -0.32,0.28 -0.43,0.48 -0.1,0.2 -0.16,0.43 -0.16,0.69 0,0.22 0.04,0.39 0.11,0.53 0.07,0.13 0.19,0.25 0.34,0.34 0.16,0.1 0.36,0.18 0.61,0.25 0.25,0.07 0.54,0.15 0.88,0.24 0.47,0.11 0.88,0.22 1.24,0.33 0.36,0.1 0.66,0.23 0.91,0.39 0.24,0.15 0.43,0.33 0.56,0.54 0.13,0.21 0.19,0.48 0.19,0.8 0,0.67 -0.26,1.2 -0.78,1.59 -0.52,0.39 -1.21,0.59 -2.07,0.59 z"
           id="path834" />
        <path
           class="cls-1"
           d="m 37.91,10.55 c -0.52,0 -1,-0.1 -1.45,-0.31 C 36.02,10.04 35.64,9.76 35.31,9.41 34.99,9.06 34.73,8.65 34.55,8.18 34.37,7.71 34.28,7.22 34.28,6.71 34.28,6.2 34.37,5.69 34.56,5.23 34.75,4.76 35,4.36 35.32,4 c 0.32,-0.35 0.71,-0.63 1.15,-0.83 0.44,-0.2 0.92,-0.31 1.43,-0.31 0.51,0 0.99,0.1 1.43,0.31 0.44,0.2 0.82,0.48 1.15,0.83 0.33,0.35 0.58,0.76 0.77,1.23 0.19,0.47 0.28,0.96 0.28,1.48 0,0.52 -0.09,1 -0.28,1.47 -0.19,0.47 -0.44,0.87 -0.76,1.23 -0.32,0.35 -0.71,0.63 -1.15,0.83 -0.44,0.2 -0.92,0.31 -1.43,0.31 z M 35,6.74 c 0,0.44 0.08,0.85 0.23,1.23 0.15,0.38 0.36,0.72 0.62,1 0.26,0.29 0.57,0.51 0.92,0.68 0.35,0.17 0.73,0.25 1.13,0.25 0.4,0 0.77,-0.08 1.13,-0.25 0.35,-0.17 0.66,-0.4 0.93,-0.69 0.27,-0.29 0.48,-0.63 0.63,-1.02 0.15,-0.39 0.23,-0.8 0.23,-1.25 0,-0.45 -0.08,-0.85 -0.23,-1.23 C 40.44,5.08 40.23,4.74 39.96,4.45 39.69,4.16 39.39,3.93 39.04,3.76 38.69,3.59 38.32,3.5 37.92,3.5 c -0.4,0 -0.77,0.09 -1.13,0.26 -0.36,0.17 -0.66,0.4 -0.92,0.7 C 35.61,4.75 35.4,5.1 35.24,5.49 35.08,5.88 35,6.3 35,6.74 Z"
           id="path836" />
        <path
           class="cls-1"
           d="m 45.53,10.55 c -1.58,0 -2.37,-1.09 -2.37,-3.28 V 2.99 h 0.71 v 4.18 c 0,1.82 0.62,2.74 1.87,2.74 0.31,0 0.62,-0.05 0.91,-0.16 C 46.94,9.64 47.22,9.49 47.48,9.29 47.74,9.1 47.96,8.86 48.16,8.58 48.35,8.3 48.51,8 48.62,7.67 V 2.99 h 0.71 v 6.42 c 0,0.24 0.1,0.36 0.3,0.36 v 0.64 c 0,0 -0.09,0.01 -0.13,0.01 h -0.09 c -0.19,0 -0.36,-0.06 -0.51,-0.18 C 48.75,10.12 48.68,9.96 48.68,9.76 V 8.65 c -0.32,0.6 -0.77,1.06 -1.33,1.4 -0.57,0.33 -1.18,0.5 -1.83,0.5 z"
           id="path838" />
        <path
           class="cls-1"
           d="m 54.91,10.05 c 0,0 -0.1,0.05 -0.19,0.11 -0.09,0.06 -0.2,0.1 -0.34,0.15 -0.14,0.05 -0.29,0.09 -0.46,0.13 -0.17,0.04 -0.36,0.06 -0.56,0.06 -0.2,0 -0.39,-0.03 -0.56,-0.09 C 52.63,10.35 52.47,10.27 52.34,10.15 52.21,10.04 52.1,9.9 52.03,9.74 51.95,9.58 51.92,9.39 51.92,9.17 V 3.58 H 50.88 V 3 h 1.04 V 0.46 h 0.71 V 3 h 1.73 V 3.58 H 52.63 V 9 c 0,0.28 0.09,0.48 0.29,0.62 0.19,0.14 0.4,0.21 0.64,0.21 0.29,0 0.55,-0.05 0.76,-0.15 0.21,-0.1 0.34,-0.16 0.39,-0.19 l 0.21,0.57 z"
           id="path840" />
        <path
           class="cls-1"
           d="m 62.82,10.52 c -0.51,0 -0.98,-0.11 -1.41,-0.32 C 60.98,9.99 60.61,9.7 60.31,9.34 60,8.98 59.76,8.58 59.58,8.12 59.4,7.66 59.32,7.19 59.32,6.71 c 0,-0.48 0.08,-0.99 0.25,-1.45 0.17,-0.47 0.4,-0.88 0.71,-1.23 0.31,-0.35 0.67,-0.64 1.09,-0.85 0.42,-0.21 0.89,-0.31 1.4,-0.31 0.65,0 1.21,0.17 1.69,0.51 0.48,0.34 0.89,0.75 1.22,1.23 V 3 h 0.66 v 7.56 c 0,0.5 -0.09,0.95 -0.29,1.33 -0.19,0.38 -0.44,0.7 -0.76,0.95 -0.32,0.25 -0.69,0.44 -1.11,0.57 -0.42,0.13 -0.87,0.19 -1.33,0.19 -0.43,0 -0.81,-0.04 -1.15,-0.12 -0.34,-0.08 -0.64,-0.19 -0.91,-0.34 -0.26,-0.15 -0.49,-0.33 -0.7,-0.54 -0.2,-0.21 -0.38,-0.45 -0.53,-0.71 l 0.48,-0.33 c 0.29,0.5 0.69,0.87 1.2,1.1 0.5,0.23 1.04,0.35 1.61,0.35 0.38,0 0.74,-0.05 1.08,-0.16 0.34,-0.1 0.63,-0.26 0.88,-0.46 0.25,-0.2 0.45,-0.46 0.6,-0.76 0.15,-0.3 0.22,-0.66 0.22,-1.07 V 8.94 c -0.3,0.48 -0.71,0.87 -1.21,1.16 -0.5,0.29 -1.03,0.44 -1.58,0.44 z m 0.17,-0.61 c 0.31,0 0.62,-0.06 0.92,-0.18 0.3,-0.12 0.57,-0.27 0.81,-0.46 0.24,-0.19 0.44,-0.4 0.6,-0.64 0.16,-0.24 0.25,-0.48 0.29,-0.71 V 5.48 C 65.5,5.2 65.34,4.93 65.15,4.69 64.96,4.45 64.74,4.24 64.5,4.07 64.26,3.9 64,3.76 63.72,3.66 63.44,3.56 63.16,3.51 62.87,3.51 c -0.45,0 -0.85,0.1 -1.2,0.29 -0.35,0.19 -0.65,0.44 -0.89,0.74 -0.24,0.3 -0.43,0.65 -0.56,1.03 -0.13,0.38 -0.19,0.77 -0.19,1.16 0,0.43 0.08,0.83 0.23,1.21 0.15,0.38 0.36,0.72 0.63,1.01 0.27,0.29 0.58,0.53 0.94,0.7 0.36,0.17 0.75,0.26 1.15,0.26 z"
           id="path842" />
        <path
           class="cls-1"
           d="m 70.85,10.55 c -1.58,0 -2.37,-1.09 -2.37,-3.28 V 2.99 h 0.71 v 4.18 c 0,1.82 0.62,2.74 1.87,2.74 0.31,0 0.62,-0.05 0.91,-0.16 C 72.26,9.64 72.54,9.49 72.8,9.29 73.06,9.1 73.28,8.86 73.48,8.58 73.67,8.3 73.83,8 73.94,7.67 V 2.99 h 0.71 v 6.42 c 0,0.24 0.1,0.36 0.3,0.36 v 0.64 c 0,0 -0.09,0.01 -0.13,0.01 h -0.09 c -0.19,0 -0.36,-0.06 -0.51,-0.18 C 74.07,10.12 74,9.96 74,9.76 V 8.65 c -0.32,0.6 -0.77,1.06 -1.33,1.4 -0.57,0.33 -1.18,0.5 -1.83,0.5 z"
           id="path844" />
        <path
           class="cls-1"
           d="M 76.92,1.31 V 0 h 0.71 v 1.31 z m 0,9.1 V 2.99 h 0.71 v 7.41 h -0.71 z"
           id="path846" />
        <path
           class="cls-1"
           d="m 82.92,10.55 c -0.51,0 -0.99,-0.11 -1.43,-0.32 C 81.05,10.02 80.67,9.73 80.36,9.37 80.05,9.01 79.79,8.61 79.62,8.14 79.45,7.67 79.36,7.2 79.36,6.71 c 0,-0.49 0.09,-1 0.26,-1.47 0.17,-0.47 0.41,-0.87 0.71,-1.23 0.3,-0.35 0.66,-0.63 1.08,-0.84 0.42,-0.21 0.87,-0.31 1.36,-0.31 0.32,0 0.63,0.05 0.91,0.14 0.29,0.09 0.55,0.22 0.8,0.38 0.25,0.16 0.47,0.34 0.67,0.55 0.2,0.21 0.37,0.43 0.51,0.67 V 0 h 0.71 v 9.41 c 0,0.24 0.1,0.36 0.3,0.36 v 0.64 c -0.06,0 -0.1,0.02 -0.14,0.02 -0.04,0 -0.08,0 -0.11,0 -0.19,0 -0.35,-0.07 -0.48,-0.22 -0.13,-0.15 -0.2,-0.3 -0.2,-0.46 V 8.92 c -0.3,0.49 -0.71,0.89 -1.22,1.18 -0.51,0.29 -1.04,0.44 -1.59,0.44 z m 0.13,-0.64 c 0.26,0 0.53,-0.05 0.83,-0.16 0.29,-0.1 0.57,-0.25 0.82,-0.43 0.25,-0.19 0.47,-0.4 0.65,-0.63 0.18,-0.24 0.29,-0.49 0.31,-0.77 V 5.48 C 85.56,5.21 85.41,4.96 85.21,4.72 85.02,4.48 84.79,4.27 84.55,4.09 84.3,3.91 84.04,3.77 83.75,3.67 83.46,3.57 83.19,3.51 82.92,3.51 c -0.43,0 -0.82,0.09 -1.17,0.28 -0.35,0.19 -0.65,0.43 -0.9,0.73 -0.25,0.3 -0.44,0.64 -0.57,1.03 -0.13,0.39 -0.2,0.78 -0.2,1.19 0,0.41 0.08,0.83 0.23,1.21 0.15,0.38 0.36,0.72 0.63,1.01 0.27,0.29 0.58,0.53 0.94,0.7 0.36,0.17 0.74,0.26 1.16,0.26 z"
           id="path848" />
        <path
           class="cls-1"
           d="m 91.79,10.55 c -0.52,0 -1.01,-0.1 -1.45,-0.31 C 89.89,10.04 89.51,9.76 89.18,9.4 88.85,9.04 88.6,8.63 88.41,8.17 88.22,7.7 88.13,7.21 88.13,6.67 c 0,-0.54 0.09,-1.01 0.28,-1.48 0.19,-0.47 0.44,-0.86 0.76,-1.21 0.32,-0.35 0.71,-0.62 1.15,-0.82 0.44,-0.2 0.92,-0.3 1.43,-0.3 0.51,0 1.01,0.1 1.45,0.31 0.45,0.2 0.83,0.48 1.15,0.83 0.32,0.35 0.58,0.75 0.76,1.21 0.18,0.46 0.27,0.95 0.27,1.46 v 0.18 c 0,0.07 0,0.12 -0.01,0.14 h -6.5 c 0.03,0.43 0.13,0.82 0.3,1.19 0.17,0.37 0.39,0.68 0.65,0.95 0.26,0.27 0.56,0.48 0.91,0.63 0.34,0.15 0.71,0.23 1.1,0.23 0.26,0 0.51,-0.04 0.76,-0.11 0.25,-0.07 0.48,-0.17 0.69,-0.29 0.21,-0.12 0.4,-0.27 0.57,-0.45 0.17,-0.18 0.3,-0.37 0.39,-0.58 l 0.63,0.17 C 94.77,9 94.61,9.24 94.41,9.46 94.2,9.68 93.97,9.88 93.7,10.04 c -0.27,0.16 -0.57,0.29 -0.89,0.38 -0.32,0.09 -0.66,0.14 -1,0.14 z M 94.7,6.42 C 94.67,5.98 94.57,5.58 94.41,5.22 94.24,4.86 94.03,4.55 93.77,4.29 93.51,4.03 93.21,3.82 92.87,3.68 92.53,3.53 92.16,3.46 91.77,3.46 c -0.39,0 -0.76,0.07 -1.1,0.22 -0.34,0.15 -0.64,0.35 -0.9,0.61 -0.26,0.26 -0.47,0.57 -0.63,0.94 -0.16,0.37 -0.25,0.76 -0.28,1.19 z"
           id="path850" />
      </g>
      <g
         id="g888"
         transform="matrix(1.3200478,0,0,1.3200478,-22.422547,-7.1850725)">
        <path
           class="cls-1"
           d="m 18.84,18.35 v -0.58 h 0.32 v 0.58 z m 0,4.03 v -3.29 h 0.32 v 3.29 z"
           id="path854" />
        <path
           class="cls-1"
           d="m 22.83,22.38 h -0.32 v -1.83 c 0,-0.43 -0.06,-0.74 -0.18,-0.93 -0.12,-0.19 -0.31,-0.29 -0.57,-0.29 -0.14,0 -0.28,0.03 -0.41,0.08 -0.14,0.05 -0.26,0.12 -0.38,0.21 -0.12,0.09 -0.22,0.2 -0.31,0.33 -0.09,0.12 -0.15,0.26 -0.2,0.4 v 2.04 H 20.14 V 19.1 h 0.3 v 0.78 c 0.07,-0.13 0.15,-0.24 0.25,-0.34 0.1,-0.1 0.21,-0.19 0.34,-0.27 0.12,-0.07 0.26,-0.13 0.4,-0.17 0.14,-0.04 0.28,-0.06 0.43,-0.06 0.36,0 0.61,0.13 0.76,0.38 0.15,0.25 0.22,0.61 0.22,1.08 v 1.89 z"
           id="path856" />
        <path
           class="cls-1"
           d="m 26.22,22.44 c -0.15,0 -0.29,-0.03 -0.42,-0.08 -0.13,-0.05 -0.25,-0.12 -0.34,-0.21 -0.09,-0.09 -0.18,-0.2 -0.23,-0.32 -0.06,-0.12 -0.08,-0.26 -0.08,-0.4 0,-0.14 0.03,-0.27 0.1,-0.39 0.07,-0.12 0.16,-0.22 0.28,-0.31 0.12,-0.09 0.26,-0.15 0.43,-0.2 0.17,-0.05 0.35,-0.07 0.56,-0.07 0.18,0 0.35,0.02 0.53,0.05 0.18,0.03 0.34,0.07 0.48,0.13 v -0.32 c 0,-0.31 -0.09,-0.56 -0.27,-0.74 -0.18,-0.18 -0.42,-0.28 -0.72,-0.28 -0.16,0 -0.33,0.03 -0.51,0.1 -0.18,0.07 -0.36,0.16 -0.55,0.29 l -0.12,-0.21 c 0.42,-0.29 0.82,-0.43 1.2,-0.43 0.38,0 0.71,0.12 0.94,0.34 0.23,0.23 0.34,0.55 0.34,0.95 v 1.61 c 0,0.11 0.05,0.16 0.14,0.16 v 0.28 c 0,0 -0.04,0 -0.07,0 -0.02,0 -0.04,0 -0.06,0 -0.08,0 -0.15,-0.03 -0.2,-0.08 -0.05,-0.06 -0.08,-0.13 -0.09,-0.21 v -0.27 c -0.15,0.2 -0.35,0.35 -0.58,0.46 -0.24,0.11 -0.49,0.16 -0.77,0.16 z m 0.06,-0.25 c 0.24,0 0.47,-0.05 0.67,-0.14 0.2,-0.09 0.36,-0.21 0.47,-0.37 0.07,-0.09 0.1,-0.17 0.1,-0.25 v -0.58 c -0.15,-0.06 -0.31,-0.1 -0.47,-0.13 -0.16,-0.03 -0.33,-0.04 -0.51,-0.04 -0.16,0 -0.31,0.02 -0.45,0.05 -0.14,0.04 -0.25,0.08 -0.35,0.15 -0.1,0.06 -0.17,0.14 -0.22,0.23 -0.05,0.09 -0.08,0.19 -0.08,0.3 0,0.11 0.02,0.21 0.06,0.31 0.04,0.1 0.1,0.18 0.18,0.25 0.08,0.07 0.17,0.12 0.27,0.16 0.1,0.04 0.21,0.06 0.33,0.06 z"
           id="path858" />
        <path
           class="cls-1"
           d="m 29.85,22.44 c -0.25,0 -0.5,-0.04 -0.73,-0.13 -0.23,-0.08 -0.43,-0.21 -0.61,-0.38 l 0.16,-0.21 c 0.18,0.16 0.36,0.28 0.55,0.35 0.19,0.08 0.4,0.11 0.63,0.11 0.29,0 0.52,-0.06 0.69,-0.18 0.17,-0.12 0.26,-0.29 0.26,-0.5 0,-0.1 -0.02,-0.19 -0.07,-0.26 -0.04,-0.07 -0.11,-0.13 -0.2,-0.18 -0.09,-0.05 -0.2,-0.09 -0.33,-0.13 -0.13,-0.04 -0.28,-0.08 -0.46,-0.12 -0.19,-0.04 -0.35,-0.08 -0.48,-0.13 -0.14,-0.04 -0.25,-0.09 -0.34,-0.15 -0.09,-0.06 -0.15,-0.13 -0.2,-0.21 -0.04,-0.08 -0.07,-0.19 -0.07,-0.32 0,-0.17 0.03,-0.31 0.1,-0.43 0.06,-0.12 0.15,-0.22 0.26,-0.3 0.11,-0.08 0.24,-0.14 0.39,-0.18 0.15,-0.04 0.3,-0.06 0.46,-0.06 0.26,0 0.48,0.04 0.68,0.13 0.2,0.09 0.35,0.2 0.46,0.33 l -0.18,0.17 c -0.11,-0.13 -0.25,-0.22 -0.43,-0.28 -0.17,-0.06 -0.36,-0.1 -0.56,-0.1 -0.12,0 -0.24,0.01 -0.34,0.04 -0.1,0.03 -0.2,0.07 -0.28,0.12 -0.08,0.06 -0.14,0.13 -0.19,0.21 -0.05,0.09 -0.07,0.19 -0.07,0.31 0,0.1 0.02,0.18 0.05,0.23 0.03,0.05 0.08,0.11 0.15,0.15 0.07,0.04 0.16,0.08 0.27,0.11 0.11,0.03 0.24,0.07 0.39,0.1 0.21,0.05 0.39,0.1 0.55,0.14 0.16,0.05 0.29,0.1 0.4,0.17 0.11,0.07 0.19,0.15 0.25,0.24 0.06,0.09 0.09,0.21 0.09,0.35 0,0.29 -0.11,0.53 -0.34,0.71 -0.23,0.17 -0.54,0.26 -0.92,0.26 z"
           id="path860" />
        <path
           class="cls-1"
           d="m 32.89,22.44 c -0.25,0 -0.5,-0.04 -0.73,-0.13 -0.23,-0.08 -0.43,-0.21 -0.61,-0.38 l 0.16,-0.21 c 0.18,0.16 0.36,0.28 0.55,0.35 0.19,0.08 0.4,0.11 0.63,0.11 0.29,0 0.52,-0.06 0.69,-0.18 0.17,-0.12 0.26,-0.29 0.26,-0.5 0,-0.1 -0.02,-0.19 -0.07,-0.26 -0.04,-0.07 -0.11,-0.13 -0.2,-0.18 -0.09,-0.05 -0.2,-0.09 -0.33,-0.13 -0.13,-0.04 -0.28,-0.08 -0.46,-0.12 -0.19,-0.04 -0.35,-0.08 -0.48,-0.13 -0.14,-0.04 -0.25,-0.09 -0.34,-0.15 -0.09,-0.06 -0.15,-0.13 -0.2,-0.21 -0.04,-0.08 -0.07,-0.19 -0.07,-0.32 0,-0.17 0.03,-0.31 0.1,-0.43 0.06,-0.12 0.15,-0.22 0.26,-0.3 0.11,-0.08 0.24,-0.14 0.39,-0.18 0.15,-0.04 0.3,-0.06 0.46,-0.06 0.26,0 0.48,0.04 0.68,0.13 0.2,0.09 0.35,0.2 0.46,0.33 l -0.18,0.17 c -0.11,-0.13 -0.25,-0.22 -0.43,-0.28 -0.17,-0.06 -0.36,-0.1 -0.56,-0.1 -0.12,0 -0.24,0.01 -0.34,0.04 -0.1,0.03 -0.2,0.07 -0.28,0.12 -0.08,0.06 -0.14,0.13 -0.19,0.21 -0.05,0.09 -0.07,0.19 -0.07,0.31 0,0.1 0.02,0.18 0.05,0.23 0.03,0.05 0.08,0.11 0.15,0.15 0.07,0.04 0.16,0.08 0.27,0.11 0.11,0.03 0.24,0.07 0.39,0.1 0.21,0.05 0.39,0.1 0.55,0.14 0.16,0.05 0.29,0.1 0.4,0.17 0.11,0.07 0.19,0.15 0.25,0.24 0.06,0.09 0.09,0.21 0.09,0.35 0,0.29 -0.11,0.53 -0.34,0.71 -0.23,0.17 -0.54,0.26 -0.92,0.26 z"
           id="path862" />
        <path
           class="cls-1"
           d="m 36.27,22.44 c -0.23,0 -0.45,-0.05 -0.64,-0.14 -0.2,-0.09 -0.37,-0.21 -0.51,-0.37 -0.14,-0.16 -0.25,-0.34 -0.33,-0.54 -0.08,-0.21 -0.12,-0.42 -0.12,-0.65 0,-0.23 0.04,-0.45 0.12,-0.66 0.08,-0.21 0.2,-0.39 0.34,-0.54 0.14,-0.16 0.31,-0.28 0.51,-0.37 0.2,-0.09 0.41,-0.14 0.64,-0.14 0.23,0 0.44,0.05 0.63,0.14 0.19,0.09 0.36,0.21 0.51,0.37 0.15,0.16 0.26,0.34 0.34,0.54 0.08,0.21 0.12,0.43 0.12,0.66 0,0.23 -0.04,0.44 -0.12,0.65 -0.08,0.21 -0.19,0.39 -0.34,0.54 -0.14,0.16 -0.31,0.28 -0.51,0.37 -0.2,0.09 -0.41,0.14 -0.64,0.14 z m -1.29,-1.69 c 0,0.19 0.03,0.38 0.1,0.55 0.07,0.17 0.16,0.32 0.27,0.45 0.12,0.13 0.25,0.23 0.41,0.3 0.16,0.07 0.32,0.11 0.5,0.11 0.18,0 0.34,-0.04 0.5,-0.11 0.16,-0.07 0.29,-0.18 0.41,-0.31 0.12,-0.13 0.21,-0.28 0.28,-0.45 0.07,-0.17 0.1,-0.36 0.1,-0.55 0,-0.19 -0.03,-0.38 -0.1,-0.55 -0.07,-0.17 -0.16,-0.32 -0.28,-0.45 -0.12,-0.13 -0.25,-0.23 -0.41,-0.31 -0.15,-0.08 -0.32,-0.11 -0.5,-0.11 -0.18,0 -0.34,0.04 -0.5,0.11 -0.16,0.08 -0.29,0.18 -0.41,0.31 -0.12,0.13 -0.21,0.28 -0.28,0.46 -0.07,0.17 -0.1,0.36 -0.1,0.55 z"
           id="path864" />
        <path
           class="cls-1"
           d="m 38.41,20.72 c 0,-0.23 0.04,-0.45 0.12,-0.66 0.08,-0.21 0.19,-0.39 0.33,-0.54 0.14,-0.15 0.31,-0.27 0.51,-0.36 0.2,-0.09 0.42,-0.13 0.65,-0.13 0.3,0 0.56,0.07 0.79,0.2 0.23,0.13 0.4,0.32 0.51,0.56 l -0.31,0.1 c -0.1,-0.18 -0.24,-0.32 -0.41,-0.43 -0.18,-0.1 -0.38,-0.16 -0.59,-0.16 -0.18,0 -0.35,0.04 -0.51,0.11 -0.16,0.07 -0.29,0.17 -0.41,0.3 -0.12,0.13 -0.21,0.28 -0.27,0.45 -0.07,0.17 -0.1,0.36 -0.1,0.55 0,0.19 0.04,0.38 0.1,0.56 0.07,0.17 0.16,0.33 0.28,0.46 0.12,0.13 0.25,0.23 0.41,0.31 0.16,0.08 0.33,0.11 0.5,0.11 0.11,0 0.23,-0.02 0.34,-0.05 0.11,-0.03 0.22,-0.08 0.31,-0.13 0.09,-0.05 0.18,-0.12 0.25,-0.19 0.07,-0.07 0.12,-0.15 0.14,-0.23 l 0.31,0.09 c -0.04,0.11 -0.11,0.22 -0.19,0.32 -0.09,0.1 -0.19,0.18 -0.31,0.26 -0.12,0.07 -0.25,0.13 -0.39,0.17 -0.14,0.04 -0.29,0.06 -0.44,0.06 -0.23,0 -0.45,-0.05 -0.65,-0.14 -0.2,-0.09 -0.37,-0.22 -0.52,-0.37 C 38.71,21.78 38.6,21.6 38.52,21.39 38.44,21.18 38.4,20.96 38.4,20.73 Z"
           id="path866" />
        <path
           class="cls-1"
           d="m 42.08,18.35 v -0.58 h 0.32 v 0.58 z m 0,4.03 v -3.29 h 0.32 v 3.29 z"
           id="path868" />
        <path
           class="cls-1"
           d="m 44.2,22.44 c -0.15,0 -0.29,-0.03 -0.42,-0.08 -0.13,-0.05 -0.25,-0.12 -0.34,-0.21 -0.09,-0.09 -0.18,-0.2 -0.23,-0.32 -0.06,-0.12 -0.08,-0.26 -0.08,-0.4 0,-0.14 0.03,-0.27 0.1,-0.39 0.07,-0.12 0.16,-0.22 0.28,-0.31 0.12,-0.09 0.26,-0.15 0.43,-0.2 0.17,-0.05 0.35,-0.07 0.56,-0.07 0.18,0 0.35,0.02 0.53,0.05 0.18,0.03 0.34,0.07 0.48,0.13 v -0.32 c 0,-0.31 -0.09,-0.56 -0.27,-0.74 -0.18,-0.18 -0.42,-0.28 -0.72,-0.28 -0.16,0 -0.33,0.03 -0.51,0.1 -0.18,0.07 -0.36,0.16 -0.55,0.29 l -0.12,-0.21 c 0.42,-0.29 0.82,-0.43 1.2,-0.43 0.38,0 0.71,0.12 0.94,0.34 0.23,0.23 0.34,0.55 0.34,0.95 v 1.61 c 0,0.11 0.05,0.16 0.14,0.16 v 0.28 c 0,0 -0.04,0 -0.07,0 -0.02,0 -0.04,0 -0.06,0 -0.08,0 -0.15,-0.03 -0.2,-0.08 -0.05,-0.06 -0.08,-0.13 -0.09,-0.21 v -0.27 c -0.15,0.2 -0.35,0.35 -0.58,0.46 -0.24,0.11 -0.49,0.16 -0.77,0.16 z m 0.06,-0.25 c 0.24,0 0.47,-0.05 0.67,-0.14 0.2,-0.09 0.36,-0.21 0.47,-0.37 0.07,-0.09 0.1,-0.17 0.1,-0.25 v -0.58 c -0.15,-0.06 -0.31,-0.1 -0.47,-0.13 -0.16,-0.03 -0.33,-0.04 -0.51,-0.04 -0.16,0 -0.31,0.02 -0.45,0.05 -0.14,0.04 -0.25,0.08 -0.35,0.15 -0.1,0.06 -0.17,0.14 -0.22,0.23 -0.05,0.09 -0.08,0.19 -0.08,0.3 0,0.11 0.02,0.21 0.06,0.31 0.04,0.1 0.1,0.18 0.18,0.25 0.08,0.07 0.17,0.12 0.27,0.16 0.1,0.04 0.21,0.06 0.33,0.06 z"
           id="path870" />
        <path
           class="cls-1"
           d="m 48.23,22.22 c 0,0 -0.05,0.02 -0.09,0.05 -0.04,0.02 -0.09,0.04 -0.15,0.07 -0.06,0.02 -0.13,0.04 -0.21,0.06 -0.08,0.02 -0.16,0.03 -0.25,0.03 -0.09,0 -0.17,-0.01 -0.25,-0.04 C 47.2,22.36 47.13,22.33 47.07,22.28 47.01,22.23 46.96,22.17 46.93,22.1 46.9,22.03 46.88,21.94 46.88,21.85 v -2.48 h -0.46 v -0.26 h 0.46 v -1.13 h 0.32 v 1.13 h 0.77 v 0.26 H 47.2 v 2.4 c 0,0.12 0.04,0.21 0.13,0.28 0.08,0.06 0.18,0.09 0.28,0.09 0.13,0 0.24,-0.02 0.34,-0.07 0.1,-0.04 0.15,-0.07 0.17,-0.09 l 0.09,0.25 z"
           id="path872" />
        <path
           class="cls-1"
           d="m 48.78,18.35 v -0.58 h 0.32 v 0.58 z m 0,4.03 v -3.29 h 0.32 v 3.29 z"
           id="path874" />
        <path
           class="cls-1"
           d="m 51.47,22.44 c -0.23,0 -0.45,-0.05 -0.64,-0.14 -0.2,-0.09 -0.37,-0.21 -0.51,-0.37 -0.14,-0.16 -0.25,-0.34 -0.33,-0.54 -0.08,-0.21 -0.12,-0.42 -0.12,-0.65 0,-0.23 0.04,-0.45 0.12,-0.66 0.08,-0.21 0.2,-0.39 0.34,-0.54 0.14,-0.16 0.31,-0.28 0.51,-0.37 0.2,-0.09 0.41,-0.14 0.64,-0.14 0.23,0 0.44,0.05 0.63,0.14 0.19,0.09 0.36,0.21 0.51,0.37 0.15,0.16 0.26,0.34 0.34,0.54 0.08,0.21 0.12,0.43 0.12,0.66 0,0.23 -0.04,0.44 -0.12,0.65 -0.08,0.21 -0.19,0.39 -0.34,0.54 -0.14,0.16 -0.31,0.28 -0.51,0.37 -0.2,0.09 -0.41,0.14 -0.64,0.14 z m -1.29,-1.69 c 0,0.19 0.03,0.38 0.1,0.55 0.07,0.17 0.16,0.32 0.27,0.45 0.12,0.13 0.25,0.23 0.41,0.3 0.16,0.07 0.32,0.11 0.5,0.11 0.18,0 0.34,-0.04 0.5,-0.11 0.16,-0.07 0.29,-0.18 0.41,-0.31 0.12,-0.13 0.21,-0.28 0.28,-0.45 0.07,-0.17 0.1,-0.36 0.1,-0.55 0,-0.19 -0.03,-0.38 -0.1,-0.55 -0.07,-0.17 -0.16,-0.32 -0.28,-0.45 -0.12,-0.13 -0.25,-0.23 -0.41,-0.31 -0.15,-0.08 -0.32,-0.11 -0.5,-0.11 -0.18,0 -0.34,0.04 -0.5,0.11 -0.16,0.08 -0.29,0.18 -0.41,0.31 -0.12,0.13 -0.21,0.28 -0.28,0.46 -0.07,0.17 -0.1,0.36 -0.1,0.55 z"
           id="path876" />
        <path
           class="cls-1"
           d="M 56.52,22.38 H 56.2 v -1.83 c 0,-0.43 -0.06,-0.74 -0.18,-0.93 -0.12,-0.19 -0.31,-0.29 -0.57,-0.29 -0.14,0 -0.28,0.03 -0.41,0.08 -0.14,0.05 -0.26,0.12 -0.38,0.21 -0.12,0.09 -0.22,0.2 -0.31,0.33 -0.09,0.12 -0.15,0.26 -0.2,0.4 v 2.04 H 53.83 V 19.1 h 0.3 v 0.78 c 0.07,-0.13 0.15,-0.24 0.25,-0.34 0.1,-0.1 0.21,-0.19 0.34,-0.27 0.12,-0.07 0.26,-0.13 0.4,-0.17 0.14,-0.04 0.28,-0.06 0.43,-0.06 0.36,0 0.61,0.13 0.76,0.38 0.15,0.25 0.22,0.61 0.22,1.08 v 1.89 z"
           id="path878" />
        <path
           class="cls-1"
           d="m 63.1,19.09 h 0.32 L 62,22.38 h -0.27 l -0.74,-1.74 -0.74,1.74 h -0.27 l -1.42,-3.29 h 0.31 l 1.26,2.94 0.69,-1.62 -0.56,-1.32 h 0.27 l 0.46,1.09 0.45,-1.09 h 0.28 l -0.56,1.32 0.69,1.62 z"
           id="path880" />
        <path
           class="cls-1"
           d="m 64.03,18.35 v -0.58 h 0.32 v 0.58 z m 0,4.03 v -3.29 h 0.32 v 3.29 z"
           id="path882" />
        <path
           class="cls-1"
           d="m 66.81,22.22 c 0,0 -0.05,0.02 -0.09,0.05 -0.04,0.02 -0.09,0.04 -0.15,0.07 -0.06,0.02 -0.13,0.04 -0.21,0.06 -0.08,0.02 -0.16,0.03 -0.25,0.03 -0.09,0 -0.17,-0.01 -0.25,-0.04 -0.08,-0.03 -0.15,-0.06 -0.21,-0.11 -0.06,-0.05 -0.11,-0.11 -0.14,-0.18 -0.03,-0.07 -0.05,-0.16 -0.05,-0.25 V 19.37 H 65 v -0.26 h 0.46 v -1.13 h 0.32 v 1.13 h 0.77 v 0.26 h -0.77 v 2.4 c 0,0.12 0.04,0.21 0.13,0.28 0.08,0.06 0.18,0.09 0.28,0.09 0.13,0 0.24,-0.02 0.34,-0.07 0.1,-0.04 0.15,-0.07 0.17,-0.09 l 0.09,0.25 z"
           id="path884" />
        <path
           class="cls-1"
           d="m 70.05,22.38 h -0.32 v -1.83 c 0,-0.81 -0.27,-1.22 -0.82,-1.22 -0.13,0 -0.27,0.03 -0.39,0.08 -0.12,0.05 -0.25,0.12 -0.36,0.21 -0.11,0.09 -0.21,0.2 -0.29,0.33 -0.08,0.12 -0.15,0.26 -0.19,0.4 v 2.04 h -0.32 v -4.62 h 0.32 v 2.11 c 0.13,-0.26 0.32,-0.46 0.56,-0.61 0.24,-0.15 0.49,-0.23 0.77,-0.23 0.18,0 0.34,0.03 0.47,0.1 0.13,0.07 0.24,0.16 0.33,0.29 0.09,0.13 0.15,0.28 0.19,0.46 0.04,0.18 0.06,0.38 0.06,0.6 v 1.89 z"
           id="path886" />
      </g>
      <g
         id="Artwork_1"
         data-name="Artwork 1"
         transform="translate(-0.87818829,-0.6830353)">
        <g
           id="g916">
          <path
             class="cls-1"
             d="m 74.24,20.38 c 0,-2.92 2.36,-5.28 5.28,-5.28 2.92,0 5.28,2.36 5.28,5.28 0,2.92 -2.36,5.28 -5.28,5.28 -2.92,0 -5.28,-2.36 -5.28,-5.28 m 2.73,-2.57 2.67,1.23 h -4.15 v 0.83 h 4.18 l -2.03,0.99 h -2.15 v 0.82 h 2.15 l 2.54,1.23 h 1.91 l -2.68,-1.23 h 4.17 v -0.82 h -4.16 l 2.03,-0.99 h 2.13 V 19.04 H 81.44 L 78.9,17.81 h -1.92 z"
             id="path890" />
          <path
             class="cls-1"
             d="m 93.17,17.49 h -1.22 v 2.79 c 0,0.44 0,0.6 0.02,1.12 -0.16,-0.27 -0.34,-0.5 -0.56,-0.81 l -2.15,-3.1 h -1.27 v 5.67 h 1.21 v -2.73 c 0,-0.51 -0.06,-1.23 -0.06,-1.23 0,0 0.36,0.58 0.58,0.89 0,0 2.16,3.06 2.16,3.06 h 1.28 v -5.67"
             id="path892" />
          <path
             class="cls-2"
             d="m 96.1,21.25 c 0,0.6 -0.38,1.01 -0.83,1.01 -0.36,0 -0.59,-0.24 -0.59,-0.7 0,-0.68 0.38,-1.09 0.96,-1.09 0.13,0 0.28,0 0.46,0.05 v 0.73 m 0.13,1.44 c 0.02,0.26 0.03,0.48 0.03,0.48 h 0.93 c 0,0 -0.06,-0.67 -0.06,-1.17 v -2.31 c -0.5,-0.15 -0.79,-0.18 -1.26,-0.18 -1.44,0 -2.3,0.75 -2.3,2.05 0,1.07 0.55,1.69 1.44,1.69 0.48,0 0.95,-0.19 1.22,-0.56"
             id="path894" />
          <path
             class="cls-1"
             d="m 99.19,20.36 h 1.07 v -0.77 h -1.07 v -0.9 h -1.08 v 0.9 h -0.59 v 0.77 h 0.59 v 1.73 c 0,0.89 0.53,1.19 1.28,1.19 0.39,0 0.7,-0.1 0.95,-0.26 v -0.8 c -0.27,0.15 -0.47,0.24 -0.66,0.24 -0.32,0 -0.49,-0.15 -0.49,-0.65 v -1.44"
             id="path896" />
          <path
             class="cls-2"
             d="m 100.91,23.17 h 1.11 v -3.58 h -1.11 z m 1.19,-4.65 c 0,-0.35 -0.3,-0.64 -0.63,-0.64 -0.37,0 -0.65,0.28 -0.65,0.63 0,0.35 0.29,0.62 0.65,0.62 0.36,0 0.63,-0.27 0.63,-0.6"
             id="path898" />
          <path
             class="cls-2"
             d="m 105.15,21.37 c 0,0.61 -0.28,0.95 -0.78,0.95 -0.5,0 -0.76,-0.35 -0.76,-0.95 0,-0.6 0.27,-0.93 0.76,-0.93 0.49,0 0.78,0.34 0.78,0.93 m 1.1,0 c 0,-1.22 -0.75,-1.89 -1.88,-1.89 -1.13,0 -1.89,0.69 -1.89,1.89 0,1.2 0.76,1.91 1.89,1.91 1.13,0 1.88,-0.68 1.88,-1.91"
             id="path900" />
          <path
             class="cls-1"
             d="m 107.73,21.63 c 0,-1.06 0.6,-1.18 0.74,-1.18 0.15,0 0.48,0.03 0.48,0.61 v 2.1 h 1.13 v -2.3 c 0,-0.85 -0.54,-1.37 -1.23,-1.37 -0.41,0 -0.85,0.16 -1.19,0.5 -0.03,-0.19 -0.05,-0.24 -0.11,-0.4 h -1.08 c 0.11,0.25 0.18,0.73 0.18,1.15 v 2.43 h 1.08 v -1.54"
             id="path902" />
          <path
             class="cls-2"
             d="m 113.07,21.25 c 0,0.6 -0.38,1.01 -0.83,1.01 -0.36,0 -0.59,-0.24 -0.59,-0.7 0,-0.68 0.38,-1.09 0.96,-1.09 0.13,0 0.28,0 0.46,0.05 v 0.73 m 0.13,1.44 c 0.02,0.26 0.03,0.48 0.03,0.48 h 0.93 c 0,0 -0.07,-0.67 -0.07,-1.17 v -2.31 c -0.5,-0.15 -0.79,-0.18 -1.26,-0.18 -1.44,0 -2.3,0.75 -2.3,2.05 0,1.07 0.55,1.69 1.44,1.69 0.48,0 0.95,-0.19 1.22,-0.56"
             id="path904" />
          <rect
             class="cls-1"
             x="114.79"
             y="17.49"
             width="1.11"
             height="5.6700001"
             id="rect906" />
          <path
             class="cls-2"
             d="m 121.07,18.43 c 0.17,-0.02 0.32,-0.02 0.41,-0.02 0.8,0 1.16,0.27 1.16,0.75 0,0.44 -0.43,0.72 -1.12,0.72 -0.08,0 -0.46,-0.03 -0.46,-0.03 v -1.41 m 1.18,2.15 C 123.32,20.57 124,20 124,19.14 c 0,-1.07 -0.75,-1.64 -2.51,-1.64 -0.23,0 -1.27,0.02 -1.73,0.06 v 5.63 h 1.31 v -2.28 l 1.76,2.28 h 1.55 l -2.14,-2.59 z"
             id="path908" />
          <path
             class="cls-2"
             d="m 126.74,21.25 c 0,0.6 -0.38,1.01 -0.83,1.01 -0.36,0 -0.59,-0.24 -0.59,-0.7 0,-0.68 0.38,-1.09 0.96,-1.09 0.13,0 0.28,0 0.46,0.05 v 0.73 m 0.13,1.44 c 0.02,0.26 0.03,0.48 0.03,0.48 h 0.93 c 0,0 -0.07,-0.67 -0.07,-1.17 v -2.31 c -0.5,-0.15 -0.79,-0.18 -1.26,-0.18 -1.44,0 -2.3,0.75 -2.3,2.05 0,1.07 0.55,1.69 1.44,1.69 0.48,0 0.95,-0.19 1.22,-0.56"
             id="path910" />
          <path
             class="cls-2"
             d="m 128.53,23.17 h 1.11 v -3.58 h -1.11 z m 1.19,-4.65 c 0,-0.35 -0.3,-0.64 -0.63,-0.64 -0.37,0 -0.65,0.28 -0.65,0.63 0,0.35 0.29,0.62 0.65,0.62 0.36,0 0.63,-0.27 0.63,-0.6"
             id="path912" />
          <rect
             class="cls-1"
             x="130.32001"
             y="17.49"
             width="1.11"
             height="5.6700001"
             id="rect914" />
        </g>
      </g>
    </g>
  </g>
</svg>
